<?xml version="1.0" encoding="UTF-8" standalone="no"?>
<!-- Generator: Adobe Illustrator 25.2.3, SVG Export Plug-In . SVG Version: 6.00 Build 0)  -->

<svg
   version="1.1"
   id="Layer_1"
   x="0px"
   y="0px"
   viewBox="0 0 1480.4 533.2"
   style="enable-background:new 0 0 1480.4 533.2;"
   xml:space="preserve"
   sodipodi:docname="hugologo-01.svg"
   inkscape:version="1.1.2 (0a00cf5339, 2022-02-04)"
   xmlns:inkscape="http://www.inkscape.org/namespaces/inkscape"
   xmlns:sodipodi="http://sodipodi.sourceforge.net/DTD/sodipodi-0.dtd"
   xmlns="http://www.w3.org/2000/svg"
   xmlns:svg="http://www.w3.org/2000/svg"><defs
   id="defs81" /><sodipodi:namedview
   id="namedview79"
   pagecolor="#ffffff"
   bordercolor="#666666"
   borderopacity="1.0"
   inkscape:pageshadow="2"
   inkscape:pageopacity="0.0"
   inkscape:pagecheckerboard="0"
   showgrid="false"
   inkscape:zoom="0.63909001"
   inkscape:cx="447.51129"
   inkscape:cy="230.79691"
   inkscape:window-width="1929"
   inkscape:window-height="1302"
   inkscape:window-x="26"
   inkscape:window-y="23"
   inkscape:window-maximized="0"
   inkscape:current-layer="g26" />
<style
   type="text/css"
   id="style2">
	.st0{fill:#FFFFFF;}
</style>
<g
   id="g26"
   style="fill:#800080">
	<path
   class="st0"
   d="M710.2,328.7c-4.5-0.7-8.3,0.4-12.1,0.8c-1.1,0.1-2.7-0.6-3,0.9c-0.4,1.7,1.4,2.1,2.5,2.5   c4.6,2,8.3,5.2,11.9,8.5c0,0,0,0,0,0c0.3,0.3,0.7,0.7,1,1c0.8,0,1.6,0.2,2,1c0.8,0,1.6,0.2,2,1c0.9,0.4,1.8,0.6,2.7,1.1   c7.7,4.6,14.3,10.5,21.4,15.8c0.3,0.3,0.7,0.6,1,1c0.8,0,1.6,0.2,1.9,1.2c0,0,0.1,0,0.1,0c0.3,0.3,0.6,0.6,0.9,0.9   c0,0,0.1,0.1,0.1,0.1c0.3,0.3,0.6,0.6,0.9,0.9c0,0,0.1,0.1,0.1,0.1c0.3,0.3,0.6,0.6,0.9,0.9c0,0,0.1,0.1,0.1,0.1   c0.3,0.3,0.6,0.6,0.9,0.9c0,0,0.1,0.1,0.1,0.1c0.3,0.3,0.6,0.6,0.9,0.9c0,0,0.1,0.1,0.1,0.1c0.6,0,0.9,0.3,0.9,0.9   c0,0,0.1,0.1,0.1,0.1c0.6,0,0.9,0.3,0.9,0.9c0,0,0.1,0.2,0.1,0.2c0.6,0,0.9,0.3,0.8,0.8c0,0,0.1,0.2,0.1,0.2c1,0.2,1.1,1,1.1,1.8   c8.3,9.5,16.7,18.9,25,28.4c6.3,7.2,11.9,15.1,18.7,21.8c0.1-10.3,0.1-20.6,0.2-30.9c-0.1,10.3-0.1,20.6-0.2,30.9c0,0,0.1,0,0.1,0   c0.6,0,0.9,0.3,0.9,1c0,0,0.1,0.1,0.1,0.1c1.2,0,1.3,0.9,1.2,1.8c0.3,0.4,0.6,0.7,0.9,1.1c1.5-0.1,2.3,0.5,1.8,2.1   c0,0,0.2,0.1,0.2,0.1c0.7-0.1,0.9,0.2,0.8,0.9c0,0,0.1,0.2,0.1,0.2c1.3-0.1,1.2,0.8,1.2,1.7c7.9,10.3,16,20.5,25.2,29.8   c7.9,9.7,15.9,19.4,24.9,28.1c0,0.3,0,0.6,0.1,0.9c0.9,0.7,1.3,1.3-0.1,1.8c0,0-0.1,0.1-0.1,0.1c0,0.6-0.3,0.9-0.9,0.9   c0,0-0.1,0.1-0.1,0.1c-0.2,1-1,1.1-1.8,1.1c-1,1-2,2-3,3c-2.6,2.1-5.2,4.1-7.7,6.2c-9,7.4-18.9,13.5-28.7,19.7   c-3.1,2-6.9,2.9-9.1,6.2c3.8,1.9,7.9,2.3,11.9,1.8c8.8-1.1,17.6-2.7,26.1-5.3c4.2-1.3,8.9-1.4,12.5-4.5c7.2-2.2,13.6-5.8,19.8-10   c1.6-1.1,3-2.7,5.3-2.2c16.6,11.1,34.4,19.4,54.4,21.7c6.6,0.8,13.6,2.8,20.5-1.8c-2.7-0.9-4.7-1.5-6.7-2.3   c-19.7-7.2-36.1-19.6-51.3-33.6c1.3-3.1,5-4.3,6.1-7.6c0,0,0-0.1,0-0.1c0-0.6,0.3-0.9,1-1c0,0,0,0,0,0c0-0.6,0.4-1,1-1   c14.7-14.9,27.7-31.2,39.6-48.3c2.2-2.9,4.3-5.9,6.5-8.8c16.5-22.6,33.6-44.7,54.6-63.5c7.5-7,15.3-13.6,24.2-18.8   c9.3-6.8,19.9-11.1,31.5-15.1c-3.4-1.1-5.6-2.8-8.6-2.7c-11.9,0.5-23.5,2.2-34.6,6.3c-31.1,11.4-55.1,32.1-75.4,57.7   c-13.2,13.9-25.2,28.9-37,44c0,0.9,0,1.7-1.2,1.8c0,0,0,0.1,0,0.1c0.1,0.6-0.2,1-0.8,1c0,0,0,0,0,0c-0.3,0.3-0.6,0.7-0.9,1   c0,0,0,0,0,0c0.1,0.9,0.1,1.8-1.2,1.7c0,0-0.1,0.1-0.1,0.1c0.1,0.7-0.1,1-0.8,0.8c0,0-0.2,0.2-0.2,0.2c0.2,0.7-0.1,1-0.8,1   c0,0-0.1,0-0.1,0c-4.7,3.7-7.7,8.9-11.7,13.2c-4.5,4.7-7.7,10.6-13.2,14.3c-15.3-17-28-36.1-41.9-54.2   c-7.3-11.1-16.1-21.2-24.9-31.1c-0.8-0.1-1.6-0.2-1.5-1.4c0,0-0.1-0.1-0.1-0.1c-1.9,0.1-2.2-1.1-2.2-2.6c0,0,0,0,0,0   c-15.2-17.8-31.6-34.2-54.1-42.9c-3.8-3.1-9.2-2.7-13.6-5.6"
   id="path4"
   style="fill:#800080" />
	<path
   class="st0"
   d="M1465,525c-23.3-10.6-41.7-27.4-59-45.8c-18-19.2-32.8-40.8-48.6-61.6c-8.2-12.6-18.2-23.8-28.1-35   c-0.8-0.1-1.6-0.3-1.6-1.3c0,0-0.1-0.1-0.1-0.1c-0.6,0-0.9-0.2-0.9-0.9c0,0-0.1-0.1-0.1-0.1c-0.7,0-1-0.2-0.8-0.9   c0,0-0.2-0.2-0.2-0.2c-0.7,0.1-1-0.1-0.8-0.8c0,0-0.2-0.2-0.2-0.2c-0.7,0.1-1-0.1-0.8-0.8c0,0-0.1-0.2-0.1-0.2   c-3.4-5.6-8.6-9.5-13.2-14c-11.3-11-23.7-20.6-39.1-25.5c-15.9-6.3-32.1-10.7-50.4-7.4c2.5,1.8,4.1,3.2,6,4.2   c10.7,5.7,20.6,12.5,30.5,19.5c4.6,3.3,7.5,8.4,12.9,10.7c9.9,11.6,21,22.1,30.7,33.9c6.2,7.5,11.9,15.5,19,22.2l0.1,0   c0.6,0,0.9,0.3,0.8,1c0,0,0.1,0.2,0.1,0.2c0.7-0.1,1,0.2,0.8,0.9c0,0,0.1,0.2,0.1,0.2c1.4-0.1,1.3,0.9,1.2,1.8   c0.3,0.3,0.6,0.7,0.9,1c0.6,0,1,0.3,0.9,1c0,0,0.1,0.1,0.1,0.1c0.7,0,0.9,0.2,0.8,0.9c0,0,0.1,0.2,0.1,0.2c1.3-0.1,1.2,0.8,1.2,1.7   c8.8,11.5,17.9,22.7,27.9,33.1c17.7,22.4,37.4,42.5,62.9,56c19.5,10.4,40.1,15.8,62.3,13.6c0-0.7,0-1.3,0-2   C1475.1,529.1,1469.9,527.2,1465,525z"
   id="path6"
   style="fill:#800080" />
	<path
   class="st0"
   d="M1318,529.3c-17.1-5.6-32.2-14.8-45.6-26.8c-8.2-6.1-15.2-13.5-22-21c-2-2-4-3.9-5.9-6   c-16.9-18.5-30.9-39.2-46.1-59c-9.2-13.6-20-25.8-31.1-37.9c-0.8-0.1-1.6-0.3-1.6-1.4c0,0-0.1-0.1-0.1-0.1c-0.7,0.1-1-0.2-0.9-0.9   c0,0-0.1-0.1-0.1-0.1c-0.7,0.1-1-0.2-0.9-0.9c0,0-0.1-0.1-0.1-0.1c-0.7,0.1-1-0.2-0.8-0.9c0,0-0.2-0.2-0.2-0.2   c-0.7,0.2-1-0.1-0.8-0.8c0,0-0.2-0.2-0.2-0.2c-0.7,0.2-1-0.1-0.8-0.8c0,0-0.1-0.2-0.1-0.2c-0.4-2.4-3.5-3.2-3.6-5.8   c16.6-15.9,35.1-28.9,57.8-35.9c-15.3-7.1-46.8,1.5-75.4,20.3c-2.8-0.5-5.6-1.3-7.6-3.2c-6.1-5.8-13.8-8.2-21.5-10.7   c-5.3-3.9-11.9-3.5-17.8-5.4c-9.4-3-19-3-28.5-1.2c-0.1,1.1,0.5,1.4,1.1,1.7c6.2,3.8,12.5,7.4,18.5,11.4c8,5.3,15.8,10.9,23.7,16.3   c0,0,0,0,0,0c0.3,0.3,0.7,0.6,1,1c0,0,0,0,0,0c0.3,0.3,0.6,0.7,1,1c0,0,0,0,0,0c0.3,0.3,0.6,0.6,1,1c0,0,0,0,0,0   c0.3,0.3,0.6,0.6,1,1c0,0,0,0,0,0c0.3,0.3,0.6,0.6,1,1c0,0,0,0,0,0c0.3,0.3,0.6,0.6,0.9,1c0,0,0.1,0.1,0.1,0.1   c0.3,0.3,0.6,0.6,0.9,0.9c0,0,0,0.1,0,0.1c0.9,0.2,1.1,1,1.2,1.8c0,0,0,0,0,0c0.4,0.2,0.8,0.4,1.2,0.6c-0.4,0.2-0.9,0.4-1.3,0.6   c-0.1,0.3-0.1,0.6-0.1,0.9c0.3,0,0.7,0,1,0.1c-0.3-0.1-0.6-0.1-1-0.1c-9.3,9.2-17.5,19.2-25.8,29.3c-10.5,10.9-19.8,22.9-29.2,34.8   c0,0.9-0.1,1.7-1.2,1.8c0,0,0,0.1,0,0.1c0,0.7-0.3,1-1,1c-0.9,1.1-1.8,2.1-2.7,3.2c0,1.2-0.6,1.9-1.8,2.1c-0.2,0.2-0.3,0.4-0.4,0.7   c-4.6,3.8-7.7,9-11.8,13.2c-7,8.1-14,16.3-21,24.4c-1.1,1.3-2.1,2.8-3.2,4.2c0,0-0.2,0.2-0.2,0.2c0.1,0.6-0.2,0.8-0.8,0.8   c0,0-0.2,0.2-0.2,0.2c0.1,0.6-0.2,0.8-0.8,0.8c0,0-0.2,0.2-0.2,0.2c0.1,0.6-0.2,0.8-0.8,0.8c0,0-0.2,0.2-0.2,0.2   c0,0.6-0.2,0.9-0.8,0.8c0,0-0.2,0.2-0.2,0.2c0,0.6-0.2,0.9-0.8,0.9c0,0-0.1,0.1-0.1,0.1c-0.3,0.3-0.6,0.6-0.9,0.9   c0,0-0.1,0.1-0.1,0.1c-1.7,0.1-2.6,1.4-3.6,2.4c-11.2,10.9-23.1,20.8-37.2,27.9c-4.8,2.4-10.1,4.2-13.6,9   c8.5,3.2,16.6,1.2,24.7-0.2c11.1-1.9,22-4.3,32-9.9c1.5-0.9,3-2.1,4.6-2.8c15.9-6.6,27.6-18.3,38.6-30.9c0,0,0.1-0.1,0.1-0.1   c0-0.7,0.3-1,0.9-0.9c0,0,0.1-0.1,0.1-0.1c0-0.7,0.3-1,0.9-0.9c0,0,0.1,0,0.1,0c0-1.1,0.8-1.2,1.6-1.4c5-5.4,10.1-10.8,15.1-16.3   c6-7.5,11.9-15.1,17.9-22.6c0-0.4,0-0.7,0-1.1c3.9-5.3,7.9-10.6,11.8-15.9c9.3-12.8,18.7-25.4,29.3-37.2c2.2,0,3,1.8,4.2,3.1   c6.4,6.9,11.5,15,18.6,21.3l0.1,0c1.2,0.1,1.3,0.9,1.2,1.8c0.4,0.6,0.9,1.2,1.3,1.8c0.8,0.1,1.5,0.4,1.5,1.4c0,0,0.1,0,0.1,0   c0.7,0,1,0.3,0.8,0.9c0,0,0.1,0.1,0.1,0.1c1.3,0,1.3,0.8,1.2,1.7c1.8,2.4,3.5,4.8,5.5,7.1c9.1,11,17.7,22.4,27.7,32.6   c10.7,12.9,21.2,26,34.4,36.7c1.1,0.9,2.6,1.6,2.6,3.4c3.3,0.2,5,3,7.4,4.5c5.9,3.8,11.7,7.7,17.5,11.6c1.5,0.7,3.1,1.3,4.5,2   c17.1,8.6,35.1,12.9,54.2,12.5c1.7,0,4.5,0.5,4.8-1.2C1322.4,529.6,1319.5,529.8,1318,529.3z"
   id="path8"
   style="fill:#800080" />
	<path
   class="st0"
   d="M452.8,520.3c-3.6,2.8-8.3,3.9-11.6,7.2c-1.9,1.9-2.5,3,0.6,4.1c1.6,0.6,3.5,1.4,4.8,0.6   c4.8-2.8,10,0.1,14.9-1.7l42.8-15.4c2.4-4.2,7.3-4.8,10.8-7.6c4.9-3.9,8.9-9,14.4-12.1c0.1-1.5,1.4-2.1,2.3-3   c4.3-4.3,8.6-8.6,12-13.6l0.1-0.2c-0.1-0.6,0.2-0.9,0.9-0.9c0,0,0.1-0.1,0.1-0.1c0-1.1,0.7-1.3,1.5-1.4c2.7-3,5.4-6,8.1-9   c6-8,13.1-15.1,18.1-23.9c0.3-0.2,0.5-0.2,0.8-0.3c2.9-3.9,5.8-7.8,8.7-11.7c3.4-5.4,7-10.6,11.3-15.4c5.1-7.7,11-14.8,17.1-21.8   c1.6,0.9,2.9,2.1,3.2,4.1c7.4,6.9,13.1,15.4,19.8,22.9c0.6,0.7,1.4,1.3,2.1,2c0.7,1.2,1.3,2.3,2,3.5c0.5,0.3,1.1,0.6,1.6,0.9   c0.7,0,1,0.3,1,1c0,0,0.1,0.2,0.1,0.2c0.7-0.1,0.9,0.2,0.7,0.9c0,0,0.1,0.2,0.1,0.2c1.4-0.1,1.2,0.8,1.2,1.7   c7.7,10,15.6,19.9,24.5,29c13.5,16.5,27.2,32.7,44.7,45.4c18,13.1,37.3,23.1,59.7,25.9c6.8,0.8,14,2.8,21.4-1.6   c-9-3-17.1-6.3-24.7-10.7c-24.6-14.2-43.8-34.4-61.9-55.9c-12.2-14.5-22.8-30.3-34.4-45.3h0c-8.3-11.9-17.3-23.3-27.1-33.9   c-0.8-0.1-1.6-0.3-1.5-1.4c0,0-0.1-0.1-0.1-0.1c-0.7,0.1-0.9-0.2-0.7-0.8c0,0-0.3-0.3-0.3-0.3c-0.7,0.2-0.9,0-0.7-0.7   c0,0-0.3-0.3-0.3-0.3c-0.7,0.2-0.9,0-0.7-0.7c0,0-0.2-0.2-0.2-0.2c-2.5-3.2-4.9-6.4-7.4-9.6c16.4-16.5,34.7-30.3,57-38.5   c-2.1-2.4-5-2-6.9-3.5c-6.8-0.9-13.4,1.1-20.1,2c-17.4,4.8-33.2,12.8-47.8,23.3c-7.1-3.7-13.2-9.1-20.6-12.5   c-3.1-1.4-6.9-1-9.5-3.7c-13.9-5.4-28-10-43.2-8c-1.2,0.2-3.1-0.7-3.2,1.2c-0.1,1.4,1.4,2,2.6,2.8c6.3,4.1,12.5,8.4,19,12.3   l27.7,16.3c3.7,2.2,4.8,7.1,2.3,10.6c-5.7,8.1-14.9,20.2-17.6,22.9c-0.5,0.9-1,1.8-1.5,2.6c0,13.1,0.1,26.2,0.1,39.4   c0-13.1-0.1-26.2-0.1-39.4c-5.7,4.7-9.3,11.3-14.8,16.2c-3.8,4.9-7.5,9.8-11.3,14.7c0.1,0.9,0.2,1.8-1.2,1.7c0,0-0.2,0.3-0.2,0.3   c0.2,0.7,0,0.9-0.7,0.8c0,0-0.2,0.2-0.2,0.2c0.1,0.7-0.1,0.9-0.8,0.9c0,0-0.1,0-0.1,0c-4.6,3.5-6.8,9.2-11.6,12.4   c-6.5,9.3-13.6,18.1-21.9,25.9c-0.3,2-1.8,3.1-3,4.4c-6.4,6.9-12.8,13.7-19.2,20.5L452.8,520.3z M591.4,374c-0.3-0.7-0.5-1.4-0.9-2   C590.9,372.6,591.1,373.4,591.4,374c4.8,3.8,9.2,8.1,13.1,12.8C600.5,382.2,596.2,377.9,591.4,374z"
   id="path10"
   style="fill:#800080" />
	<path
   class="st0"
   d="M194.4,473.7c-8.2-8.9-16-18.2-22.8-28.2c-5.7-6.1-9.8-13.5-15.1-19.9c-10.7-15.5-22.4-30.1-35.1-43.9   c-0.8-0.1-1.6-0.3-1.5-1.4c0,0-0.1-0.2-0.1-0.1c-0.6-1.8-2.1-2.9-3.4-4.2c-14.6-15.2-29.4-30.1-49.9-37.4c-0.2-0.2-0.4-0.6-0.7-0.7   c-16.1-6-32.4-10.5-49.9-8.2c-1,0.1-2.1,0.1-2.2,1.5c0,1.3,1.1,1.6,1.9,2c7,2.8,12.4,8.1,19.2,11.2c1,0.5,1.6,1.2,1.6,2.3   c1.5-0.1,2.9-0.1,3,2c3.7-0.2,6,2.4,8.6,4.2c6.1,4.1,10.9,9.9,17.2,13.8c0,0,0.1,0.1,0.1,0.1c0.3,0.3,0.6,0.6,0.9,0.9   c0,0,0.1,0.1,0.1,0.1c0.3,0.3,0.6,0.6,0.9,0.9c0,0,0.1,0.1,0.1,0.1c0.3,0.3,0.6,0.6,0.9,0.9c0,0,0.1,0.1,0.1,0.1   c0.3,0.3,0.6,0.6,0.9,0.9c0,0,0.1,0.1,0.1,0.1c0.6,0,0.9,0.3,0.9,0.9c0,0,0.1,0.1,0.1,0.1c0.6,0,0.9,0.3,0.9,0.9   c0,0,0.1,0.1,0.1,0.1c0.6,0,0.9,0.3,0.8,0.9c0,0,0.2,0.2,0.2,0.2c0.6,0,0.9,0.3,0.8,0.8c0,0,0.2,0.2,0.2,0.2c0.6,0,0.8,0.3,0.8,0.8   c0,0,0.2,0.2,0.2,0.2c0.6,0,0.8,0.3,0.8,0.8c0,0,0.2,0.2,0.2,0.2c0.5,0,0.8,0.2,0.7,0.8c0,0,0.3,0.3,0.3,0.3   c0.6-0.1,0.8,0.1,0.7,0.7c0,0,0.2,0.3,0.2,0.3c1.1,0.1,1.1,0.9,1.1,1.6c4.1,4.8,8.2,9.5,12.3,14.3c8.5,9.9,17,19.9,25.5,29.9   c0.1,0.2,0.2,0.5,0.4,0.7c0.8,0.1,1.5,0.3,1.4,1.4c0,0,0.2,0.1,0.2,0.1c0.7-0.1,0.9,0.1,0.8,0.8c0,0,0.1,0.2,0.1,0.2   c1.4-0.1,1.2,0.8,1.2,1.7c3.9,5,7.7,10,11.6,14.9c5.2,6,10.3,12,15.5,18c1.9,2,3.8,4,5.7,6c7.1,8.6,14.4,17.1,22.4,24.9   c7,5.5,13.9,11.1,20.9,16.6c19.7,13,40.8,22.1,64.9,22.9c3.7,0.1,6.9-0.2,10-2.8C240.8,520.6,214.8,497.5,194.4,473.7z"
   id="path12"
   style="fill:#800080" />
	<path
   class="st0"
   d="M710.5,342.5C710.5,342.5,710.5,342.5,710.5,342.5C710.5,342.5,710.5,342.5,710.5,342.5   C710.5,342.5,710.5,342.5,710.5,342.5z"
   id="path14"
   style="fill:#800080" />
	<path
   class="st0"
   d="M712.5,343.5C712.5,343.5,712.5,343.5,712.5,343.5C712.5,343.5,712.5,343.5,712.5,343.5   C712.5,343.5,712.5,343.5,712.5,343.5z"
   id="path16"
   style="fill:#800080" />
	<polygon
   class="st0"
   points="714.5,344.5 714.5,344.5 714.5,344.5  "
   id="polygon18"
   style="fill:#800080" />
	<path
   class="st0"
   d="M427.8,529.4c-12.8-4-24.5-10.2-35.2-18.2c-7.2-5.4-14-11.2-20.9-16.8c4.4-5.5,10.4-9.4,14.1-15.5l0-0.1   c0.1-1,0.7-1.2,1.6-1.3c9.9-11.2,19.7-22.5,28-35c2.2-2.9,4.3-5.9,6.5-8.8c7.3-9.3,13.7-19.3,21.5-28.2   c6.5-8.7,13.5-17.1,21.2-24.8c8.4-9.6,17.6-18.5,27.9-26.1c11.5-9.8,24.5-17.1,39.6-22.6c-3.7-1.6-6.5-2.8-9.4-4   c-4.1,0.5-8.1,1-12.2,1.5c-10.2,2-20.1,5.3-29.6,9.7c-13.3,6.2-24.9,14.9-36.3,24c-7.4,6.8-14.3,14.1-21,21.5   c-3.8,4.6-7.5,9.1-11.3,13.7c0,0,0,0,0,0c-6.3,5.6-10.9,12.8-16.7,18.8c-3,3.8-6,7.7-9,11.5c-0.1,1.4,0,2.9-2.1,2.8c0,0,0,0,0,0   c0.1,1.8-1.1,3.1-1.7,4.7c0.6-1.6,1.8-3,1.7-4.7c-0.6,0.4-1.2,0.7-1.8,1.1c-0.3,0.4-0.7,0.7-1,1.1c0,0,0.1,0,0.1,0   c-7.7,10.6-16.3,20.3-24.8,30.2c-2.1,2.5-3.3,6.3-7.3,6.8c-14.5-16.5-26.7-34.7-40.2-51.9c-11.3-16.8-24.4-32-38.6-46.3   c-2.4-2.6-4.6-5.3-7.1-7.6c-10.8-10.2-21.9-19.9-36.1-25.1c-1.5,1.6-1.8,0.3-2.1-0.9c-1-0.3-1.9-0.7-2.9-1c-3.5-2.7-8-3.3-12-4.3   c-11.2-2.8-22.4-5.9-34.2-3.7c-1.4,0.3-2.7,0.3-2.7,2.1c0,0.7-0.4,2,0.7,2.1c5.7,0.5,9.1,5.2,13.7,7.6   c11.1,5.8,20.9,13.4,30.6,21.2c0.3,0.3,0.6,0.7,1,1c0.4,0.3,0.7,0.6,1.1,0.9c8.7,8.8,17.3,17.7,25.5,27c7.1,8,13.2,17,21.2,24.3   c0,0,0,0,0,0c1.1,0.1,1.2,0.9,1.2,1.8c0,0,0,0,0,0c1.4,0.1,2,0.8,1.8,2.2c1.8,2.4,3.6,4.8,5.5,7.1c10,12.1,19.4,24.8,30.5,36   c7.7,9.6,15.8,18.8,24.3,27.7c0.3,0.7,0.5,1.4,0.8,2c-3.9,1.2-5.9,4.7-8.6,7.3c-12.5,11.6-26.8,20.3-41.9,27.9   c-1.2,0.6-1.9,1.5-1.9,2.6c0,1.4,1.4,1,2.3,1.2c8.7,2.3,17.1,0,25.5-1.7c7-1.5,14.4-2.4,20.7-6.3c6.2-2.5,12.7-4.4,18.4-8.2   c2.8-1.9,5.4-4.4,8.9-5.2c16.6,11.2,34.3,19.6,54.4,22c6.7,0.8,13.7,2.8,20.1-1.2C429.1,529.5,428.4,529.5,427.8,529.4z"
   id="path20"
   style="fill:#800080" />
	<path
   class="st0"
   d="M39.6,348.5C39.6,348.5,39.6,348.5,39.6,348.5C39.5,348.5,39.5,348.5,39.6,348.5   C39.5,348.5,39.6,348.5,39.6,348.5z"
   id="path22"
   style="fill:#800080" />
	<path
   class="st0"
   d="M36.6,346.5C36.6,346.5,36.5,346.5,36.6,346.5C36.5,346.5,36.5,346.5,36.6,346.5   C36.5,346.5,36.6,346.5,36.6,346.5z"
   id="path24"
   style="fill:#800080" />
</g>
<g
   id="g76"
   style="fill:#800080">
	<path
   class="st0"
   d="M0.1,70.1c8.5-2.4,17.2-1,25.7-0.7c11.5,0.4,22.9,0.7,34.3-0.4c4.6,0,9.2,0,13.8,0c2,0,4.5,0.1,4.5,2.6   c0.1,2.5-2.4,2-4.1,2.3c-4.3,0.8-9,0.4-12.5,3.7c-5,3.5-5.3,9.1-5.6,14.3c-1.3,25.4-0.9,50.9-1,76.4c0,4.6,2.7,4.5,5.9,4.5   c37.6,0,75.3,0,112.9,0c6,0,12-0.1,18,0c2.9,0.1,4.3-0.8,4.2-4c-0.3-25.8,0.6-51.6-0.9-77.4c-0.2-3-0.4-6-2.1-8.6   c-1.9-5.3-6.5-6.9-11.3-7.9c-3.6-0.7-7.3-0.8-10.9-1.1c-1.4-0.1-2.8-0.5-2.8-2.2c0-1.6,1.2-2.3,2.6-2.5c1.3-0.2,2.7-0.2,4-0.2   c8.1,0.1,16.3,0.3,24.4,0.4c13.3,1.4,26.6-0.7,39.9-0.3c2.7,0.1,7.2-1.5,7.4,2.6c0.2,3.6-4.2,2-6.6,2.5c-11.3,2-14.4,5-15.5,16.6   c-0.6,5.8-0.7,11.6-0.7,17.5c-0.1,50.6-0.1,101.3,0,151.9c0,12.3,0,24.7,2.1,36.9c1.6,9.4,4.8,12.4,14.4,13.7   c3.8,0.5,7.6,0.7,11.4,1c1.4,0.1,2.9,0.2,3.1,1.8c0.2,1.9-1.4,2.5-2.9,2.7c-1.6,0.2-3.3,0.3-5,0.3c-22.1-0.6-44.3-1.3-66.4,0   c-0.5,0-1,0-1.5,0c-2.2-0.2-5.5,0.7-5.8-2.4c-0.4-3.8,3.4-2.4,5.3-2.7c11.5-1.8,13.9-4,15.6-16.3c2-14.6,1.9-29.2,2-43.9   c0.2-20.3-0.1-40.7,0.1-61c0-4.1-1.4-5.1-5.2-5.1c-43.5,0.1-87,0.1-130.5,0c-4.2,0-5.4,1.4-5.4,5.5c0.1,30-0.1,60,1,89.9   c0.2,6,0.7,12,1.9,17.9c1.6,7.5,4.7,10.6,12.2,11.7c4.3,0.6,8.6,1,12.9,1.4c1.5,0.1,3.4-0.1,3.5,1.9c0.2,2.2-1.8,2.6-3.5,2.8   c-1.5,0.2-3,0.2-4.5,0.2c-22.1-0.5-44.3-1.3-66.4,0c-0.3,0-0.7,0-1,0c-2.5-0.3-6.3,0.9-6.3-2.8c-0.1-3.3,3.7-2,5.7-2.3   c10.8-1.6,12.8-3.3,14.8-14.1c1.9-10.3,2.2-20.9,2.2-31.3c0.1-26.3,0-52.6-0.1-78.9c0.4-12.7,0.4-25.4,0-38.2   c0.4-3.9,0.4-7.9,0-11.8c0.3-12.7,0.8-25.4-0.3-38.1c-0.1-2.8,0-5.6-0.3-8.4c-0.8-9.6-4.9-13.8-14.3-15.8C8.5,73.8,4,74.9,0,72.9   C0,72,0.1,71.1,0.1,70.1z"
   id="path28"
   style="fill:#800080" />
	<path
   class="st0"
   d="M955.9,320.2c-4-0.6-7.9-1.2-11.9-1.8c-12.1-3-23.8-7.1-34.8-12.9c-9.2-5.7-17.7-12.1-25.4-19.7   c-9.1-10-16.5-21.2-22.6-33.3c-8-18.3-12.6-37.4-12.9-57.4c-0.4-21.5,4.9-41.7,13.8-61.1c6.2-12,13.7-23.1,22.9-33.1   c7.7-7.5,16-14.1,25-19.9c10.8-5.9,22.2-10.2,34-13.4c3.9-0.7,7.9-1.4,11.8-2.1c12.7-1.3,25.3-0.9,38-0.4c3.7,0.6,7.4,1.2,11.1,1.8   c12.1,2.5,23.8,6.6,35.1,11.4c11.3,6.7,22.3,13.8,31.4,23.6c21.3,22.8,30.5,50.2,31.5,80.8c0.7,23.6-3.6,46.3-13.9,67.7   c-0.2,0.4-0.2,1-0.3,1.5c-6.4,11.5-13.7,22.4-22.8,32c-19.9,20.1-44.2,31.6-71.9,36.1C981.3,321.2,968.6,321.4,955.9,320.2z    M1034.9,100.9l0.2-0.1c-0.4-0.9-0.7-2-2.1-1.2l0-0.1c-0.1-0.4,0-1.1-0.2-1.3c-12.2-10.4-25.8-17.8-41.9-20.2   c-11-2.9-22-2.6-33.1-0.8c-9.6,0.7-18.5,3.8-27.1,7.9c-27.7,13.3-42,36.6-47.9,65.8c-3.2,11.8-3.9,23.9-3.5,36.1   c0.3,4,0.5,8,0.8,11.9c0.7,11.7,2.7,23.1,6.8,34.1c3.6,13.2,9.8,25.1,18.1,35.9c4.9,6.9,10.5,13.2,17.4,18.1   c10.9,9.3,23.3,15.5,37.3,18.5c10.2,2.8,20.6,3.7,31.2,2.2c36.4-3,67.7-29.5,76.1-71.7c3.4-12.2,4.4-24.6,4.4-37.1   c0.5-3.9,0.4-7.9-0.4-11.8c-0.2-12.4-1.9-24.5-5.9-36.2c-4.3-16.2-11.5-30.9-23.2-43.1l0,0.2c0-0.8-0.4-1.3-1.1-1.6   c-1.1-1.9-2.5-3.4-4.4-4.4C1036.2,101.2,1035.8,100.7,1034.9,100.9z"
   id="path30"
   style="fill:#800080" />
	<path
   class="st0"
   d="M771,98.9c-8.8-9.1-20-13.7-32-16.7c-9.8-3.3-19.9-4.5-30.1-4.9c-5-0.5-10-0.6-15-0.2c-10.6-0.1-21,1-31.1,4.4   c-11.6,2.9-21.9,8.5-31.3,15.9c-10.3,7.8-17.5,17.8-22.5,29.6c-7.4,15-10.2,31.2-10.9,47.7c-1.2,25.7,4.5,50.1,16.7,72.8   c0.8,1.4,1.8,2.8,2.7,4.1c5.8,11.4,14,20.8,24.2,28.4c17.7,15.3,38.6,23.2,61.5,25.9c2.8,0.3,5.6,1.3,8.4,0.4   c9.9,1.1,19.6,0.1,29.2-2.3c4.6-0.3,8.7-2,12.7-4.1c3.8-2,6.3-5.2,6.3-9.5c-0.4-24.6,1.2-49.2-0.7-73.7   c-0.9-12.6-5.6-16.9-18.3-17.7c-2.6-0.2-5.2-1-7.8,0l0,0c-2.6-4.3,0.1-5.3,3.6-5.2c10.6,0.1,21.3,0.2,31.9,0.7   c10.3,0.5,20.6-0.7,30.9-0.6c2.5,0,5-0.1,7.5,0c1.7,0.1,3.6,0.4,3.6,2.6c0,2-1.9,2-3.4,2.2c-2.8,0.5-5.6,0.7-8.4,1.3   c-3.5,0.8-6.6,2.4-7.9,6.1c-1.4,1.5-1.7,3.5-2,5.4c-1.3,7.1-1.1,14.4-1.1,21.6c-0.4,6.7-0.5,13.3,0.1,20c-0.4,9.7-0.4,19.3,0,29   c-0.2,5.8-0.6,11.6-0.6,17.3c0,4-2.1,6.3-5.5,8c-10.3,5.1-21.3,8.2-32.5,10.5c-1.1,0.2-2.2,0.6-3.3,0.9c-12.6,1.6-25.3,2.6-38,2.5   c-4.3-0.2-8.6-0.4-12.9-0.5c-12.7-1.7-25.4-3.7-37.7-7.3c-3.6-1.3-7.3-2.5-10.9-3.8c-8.6-3.8-17.1-8-25-13.1   c-9.3-6.5-17.8-13.9-25-22.8c-5.9-8.1-10.8-16.8-15.2-25.7c-1.4-3.7-2.9-7.3-4.3-11c-3.6-12.1-6.3-24.4-7.1-37.1   c0-4.6,0-9.3,0-13.9c0.5-12.6,3-24.9,6.2-37.1c1.3-3.7,2.7-7.3,4-11c4.2-9.4,9.4-18.2,15.2-26.6c7-9,15.8-16.3,24-24.2   c9.1-4.2,17.5-9.8,26.9-13.2c3.7-1.2,7.4-2.4,11.1-3.7c12.5-2.9,25.2-4.7,37.9-5.6c4.3,0.1,8.5,0.4,12.8-0.4   c12.4,0.5,24.8,1.5,37.1,2.8c3.9,1.3,7.9,1.8,12,2.1c8.7,2.7,17.7,3.5,26.8,3.9c4,0.2,6.3,1.6,5.6,6c-0.2,1,0,2,0,2.9   c-1,7.3-2,14.5-1.4,21.9c-0.8,4.6-0.7,9.2-0.7,13.9c0,3,0,6-0.2,8.9c-0.1,1.6-0.8,3-2.7,3c-1.6,0-2-1.5-2.2-2.8c-0.1-1-0.1-2-0.3-3   C780.1,114.7,778.4,105.6,771,98.9z"
   id="path32"
   style="fill:#800080" />
	<path
   class="st0"
   d="M408.9,321.2c-4-0.4-7.9-0.7-11.9-1.1c-12.4-2-24.3-5.8-35.5-11.5c-15.1-9.8-26.5-22.6-33.1-39.5   c-5.1-13-7.6-26.5-8.3-40.4c-1.4-28.9-0.3-57.9-0.6-86.9c-0.2-15.3-0.2-30.6-0.5-45.9c-0.3-16.1-5.2-21-21.2-22   c-2.2-0.1-6.1,1.3-6.1-2.3c0.1-3.6,4-2.6,6.5-2.6c18.3-0.2,36.6,1.8,54.9,0.2c2-0.2,4-0.3,6-0.4c3.1,0.1,6.3,0.2,9.4,0.4   c1.4,0.1,2.6,0.8,2.6,2.5c0,1.7-1.3,2-2.7,2.2c-2.8,0.4-5.5,0.9-8.3,1.3c-5.6,0.5-8.6,4-10,9c-1.8,6.3-1.8,12.9-1.9,19.3   c-0.1,38.8-0.3,77.6,0.1,116.5c0.1,15.3,1.8,30.6,7.8,45c2.6,8.3,7,15.6,13,21.9c0.1,0.4,0.4,0.5,0.8,0.4l-0.1,0.1   c10.9,12.5,24.5,19.7,41.2,20.4c10.6,1.5,21.1,0.7,31.1-3.3c11-3.6,20.5-9.5,28-18.4c9.5-10.5,13.6-23.3,16.4-36.8   c4.3-21.6,3.7-43.5,3.4-65.3c0-10.6,0-21.3,0-31.9c0.2-20.2,0.7-40.5-0.7-60.7c-0.1-2.1-0.2-4.3-1.3-6.3c-1.2-6.4-6.1-8.7-11.7-9.9   c-3.5-0.8-7.2-0.9-10.8-1.2c-1.6-0.1-3.2-0.3-3.2-2.3c0-1.9,1.6-2.3,3.1-2.5c1.1-0.2,2.3-0.1,3.5-0.1c9.4,0.2,18.8,0.4,28.2,0.7   c3.6,0.4,7.3,0.4,10.9-0.1c1.8,0,3.6-0.1,5.5-0.1c5.3-0.1,10.6-0.3,15.9-0.4c2,0,4.5-0.1,4.6,2.6c0.1,2.6-2.4,2.1-4.2,2.3   c-2,0.3-3.9,0.5-5.9,0.9c-5.2,1-9.3,3.5-10.7,9c-2.1,7.2-2.1,14.6-2,22c0,7.7-0.1,15.4-0.1,23c0,9.3,0,18.6,0,27.9   c0,7.4,0,14.7,0,22.1c-0.6,15.3,0.3,30.6-1.1,45.8c-1.7,18.5-4.9,36.5-13.9,53.1c-4.1,7.6-9.7,13.8-15.6,20   c-7.1,5.5-14.3,10.6-22.4,14.6c-3.7,1.5-7.4,3-11.1,4.5C434.5,320.3,421.8,321.3,408.9,321.2z"
   id="path34"
   style="fill:#800080" />
	<path
   class="st0"
   d="M245.7,30.3c0-5.7,0.1-13.5,0-21.2c0-3.5-0.4-7-5.4-7.1c4.8,0,9.6,0,14.4,0c-4.1,0.7-4,3.7-4.1,6.8   c-0.2,11-0.4,22-0.6,32.9c0,1.3,0.6,3-0.8,3.7c-1.8,0.9-2.6-0.9-3.6-1.9c-8.8-8.8-17.6-17.7-26.4-26.6c-0.7-0.7-1-1.8-2-1.6   c0,8.4-0.1,16.8,0,25.2c0,3.1,2.8,3.5,5.1,4.7c-9.4,0-18.7,0-28.1,0c-1.1,0-1.3-0.5-1.3-1.8c-0.1-3.9-2.4-7.2-3.6-10.8   c-0.4-1.3-1.3-1.8-2.6-1.8c-1.5,0-3-0.2-4.5,0c-2.4,0.3-5.5-1.3-7,1c-1.8,2.9-2.8,6.4-3.8,9.7c-0.7,2.4,2,2.3,3.1,3.7   c-7.6,0-15.2,0-22.7,0c-1.9,0-2.3-0.6-2.5-2.9c-0.6-8-2-16-4-24.2c-3.9,7.9-7.7,15.7-11.6,23.6c-0.6,1.2-0.8,3-2.2,3.1   c-1.8,0.1-2.1-1.9-2.7-3.2c-3.8-7.5-7.6-15.1-12.4-22.6c-1,7.3-2,14.5-2.8,21.8c-0.3,2.9,2.4,2.8,4.1,4.1c-4.3,0-8.6,0-12.9,0   c3.7-1,4-4,4.4-7c1.6-10.9,3.3-21.7,5-32.6c0.2-1.5,0.3-3,2.1-5.2c5.6,11.3,11,22.1,16.9,33.8c5.6-11.5,10.9-22.3,16.4-33.5   c2.3,2.2,2.1,4.6,2.4,6.7c1.6,10.4,3.1,20.7,4.7,31.1c0.4,2.5,0.8,5.1,4,5.5c3.4,0.5,5.3-1.4,6.5-4.3c4.7-11.6,9.3-23.1,14.1-34.7   c0.5-1.3,0.7-3.4,2.3-3.6c2.1-0.2,2.1,2.2,2.7,3.6c4.4,10.4,8.6,20.9,12.9,31.4c0.7,1.7,1.5,3.4,2.4,4.9c1.9,3.1,5,3.2,8,2.6   c2.9-0.5,2.5-3.2,2.5-5.3c0.2-10.8,0.2-21.6,0.4-32.5c0-1.6-0.4-3.9,1-4.6c1.8-0.9,2.6,1.6,3.7,2.6   C226.9,13.1,236.8,22.2,245.7,30.3z M182.1,12.9c-1.4,3.5-2.2,5.6-3,7.7c-2.7,7.3-2.1,7.9,5.7,7c2.2-0.3,2.5-1,1.7-2.8   C185.1,21.3,183.9,17.7,182.1,12.9z"
   id="path36"
   style="fill:#800080" />
	<path
   class="st0"
   d="M807.4,1.9c4.7,0,9.4,0,14.1,0c-3.9,0.9-4.1,3.6-4.2,6.8c-0.1,10.6-0.3,21.3-0.6,31.9c0,1.7,0.9,4.2-1.2,4.9   c-1.7,0.6-2.7-1.6-3.8-2.7c-8.7-8.7-17.3-17.5-26-26.2c-0.5-0.5-0.9-1.5-1.7-1.3c0,8.4-0.1,16.8,0,25.2c0,3.1,2.8,3.5,5.1,4.8   c-9.4,0-18.8,0-28.1,0c-1.1,0-1.8-0.3-1.2-1.8c0.7-1.5-0.5-2.9-1-4.2c-3.2-8.5-3.2-8.5-12-8.4c-4,0-9.6,7.6-8.6,11.6   c0.5,1.8,2.5,1.2,3.8,2.7c-5.1,0-9.7,0-14.3,0c4.7-1,6-4.8,7.5-8.6C739,26.7,742.9,17,747,7.3c0.9-2.2,1-6,3.6-5.9   c2.3,0.1,2.5,3.9,3.5,6.1c4,9.7,7.9,19.4,11.9,29.1c0.8,1.8,1.7,3.6,2.8,5.2c1.8,2.7,4.7,2.3,7.3,1.9c2.9-0.5,2.6-3.1,2.6-5.2   c0.2-11.1,0.3-22.3,0.5-33.4c0-1.3-0.6-3,0.8-3.7c1.9-1,2.5,1.1,3.4,2.1c8.4,8.5,16.7,17.2,25.1,25.7c1,1,1.8,2.9,3.5,2.1   c1.3-0.6,0.8-2.4,0.8-3.7c-0.1-6.3-0.4-12.6-0.4-18.9C812.3,5,811.4,2.5,807.4,1.9z M749,13c-1.9,4.8-3.3,8.5-4.7,12.1   c-0.7,1.8,0,2.2,1.7,2.5c7.5,1.2,8.4,0.2,5.9-6.8C751.1,18.6,750.3,16.5,749,13z M812.6,32.3c-0.1-0.1-0.2-0.2-0.3-0.3   c-0.1,0.1-0.2,0.2-0.3,0.3c0.2,0.1,0.3,0.2,0.5,0.3C812.5,32.6,812.6,32.4,812.6,32.3z"
   id="path38"
   style="fill:#800080" />
	<path
   class="st0"
   d="M529.9,44.7c-4.1,1-8,0.7-11.9,0.5c-1.9-0.1-1.9-1-1.8-2.6c0.2-1.8-0.2-3.6-0.5-5.4   c-0.9-6.3-1.8-12.5-2.9-20.3c-4.4,8.9-8.2,16.6-12,24.2c-0.7,1.4-0.8,3.8-2.7,3.7c-1.8,0-2.1-2.4-2.8-3.8   c-3.8-7.3-7.4-14.7-12.1-21.8c-1,7-1.9,14-2.9,20.9c-0.5,3.4,2,3.7,4.3,4.8c-4.4,0-8.7,0-13.1,0c3.5-0.9,4-3.7,4.5-6.6   c1.6-11,3.4-22,5-33.1c0.2-1.4,0.2-3,2.2-4.7c5.5,11,10.9,21.8,16.7,33.5c5.7-11.6,11-22.4,16.6-34c2.6,5,2.4,9.6,3.1,13.8   c1.3,7.5,2.3,15.1,3.3,22.7C523.6,40.7,524.4,44.4,529.9,44.7z"
   id="path40"
   style="fill:#800080" />
	<path
   class="st0"
   d="M2.1,2C9,2,14.7,2,20.3,2c-4.9,0.9-4.3,4.5-4.3,7.9c0,9.9,0,9.9,9.9,9.9c0.7,0,1.3,0.1,2,0   c3.4-0.4,8.3,1.8,9.8-1.1c2-3.8,0.7-8.8,0.2-13.3c-0.3-2.6-2.8-2.3-5-2.8c3.4-1.2,10.3-1.5,17.5-0.4c-4.4,0.7-4.6,3.6-4.5,7   c0.2,9.3,0.2,18.7,0,28c-0.1,4.2,0.6,7.3,5.7,7.7c-5.8,0-11.5,0-17.3,0c4.1-0.8,3.7-4,3.7-6.9c0-4.8,2.3-10.9-0.8-13.9   c-2.9-2.8-8.9-0.8-13.5-0.8c-9,0-7.6-1.2-7.7,7.6c0,2,0,4,0,6c-0.1,4,0.2,7.7,5.6,8.2c-5.8,0-11.5,0-17.3,0   c3.9-0.8,3.8-3.6,3.9-6.5c0.1-9.8,0.3-19.6,0.2-29.5C8.4,3.8,8.1,3.8,2.1,2z"
   id="path42"
   style="fill:#800080" />
	<path
   class="st0"
   d="M444.5,0.9c14.1,0,23.4,8.8,23.1,21.8c-0.3,13.9-10.4,23.6-24.4,23.5c-13.6-0.1-23.2-9.6-23.1-22.8   C420.1,9.9,429.9,0.8,444.5,0.9z M459.2,24.7c-0.1-5.9-1.5-11.3-5.4-15.7c-6.8-7.8-19.7-6.7-23.4,2.3c-3.5,8.4-3,17,2.2,24.8   c3.6,5.4,9.1,7.8,15.6,6.6c6.2-1.1,9-5.7,10.1-11.6C458.8,29,458.9,26.9,459.2,24.7z"
   id="path44"
   style="fill:#800080" />
	<path
   class="st0"
   d="M1081.8,30c0-6.3,0-14.8,0-23.4c0-3.5-2.9-3.5-5.3-4.5c4.9,0,9.7,0,14.6,0c-3.7,0.7-4.3,3.2-4.3,6.5   c0.1,12.3,0.1,24.5,0.1,36.8c-11.1-10.9-21.6-21.2-32.1-31.5c-0.6,0.5-1.3,0.9-1.9,1.4c-0.2,8.5,0,17,0.8,25.5   c0.3,3.1,3,2.9,4.9,4.2c-5,0-9.9,0-14.9,0c4.9-0.6,4.4-4.2,4.4-7.6c0.2-10.6,0.4-21.3,0.7-31.9c0-1.4-0.8-3.4,0.7-4.1   c1.7-0.8,2.4,1.3,3.4,2.2C1063,12.7,1072.9,21.9,1081.8,30z"
   id="path46"
   style="fill:#800080" />
	<path
   class="st0"
   d="M372.1,1.3c10.8,10.4,21.6,20.8,32.4,31.2c0-8.7,0.1-17.5,0-26.2c0-3.2-2.8-3.2-5-4.2c4.7,0,9.4,0,14.1,0   c-3.3,0.7-3.9,3-3.9,6c-0.2,11.3-0.4,22.6-0.7,33.9c0,1.2,0.8,2.9-0.8,3.5c-1.5,0.6-2.3-1-3.2-1.9c-9.7-9.3-19.3-18.6-28.6-27.6   c0,7.6-0.1,16,0,24.4c0,3.2,2.7,3.6,5.2,4.6c-5,0-9.9,0-14.9,0c5-0.8,4.4-4.6,4.4-8.1c0.1-10.8,0.3-21.6,0.5-32.4   C371.5,3.3,371.2,2.1,372.1,1.3z"
   id="path48"
   style="fill:#800080" />
	<path
   class="st0"
   d="M610.9,0.9c14.3,0,23.3,8.3,23.3,21.5c0,13.8-10,23.8-24,23.8c-13.6,0-23.3-9.3-23.4-22.5   C586.6,10.2,596.4,0.9,610.9,0.9z M625.8,26c0-6.8-1.2-12.1-4.9-16.5c-7.1-8.6-20.3-7.2-24.1,2.7c-3.1,8.1-2.4,16,2.2,23.4   c3.4,5.5,10.1,8.3,15.9,7.2c5.5-1.1,9.2-5.4,10.4-12.6C625.5,28.5,625.7,26.6,625.8,26z"
   id="path50"
   style="fill:#800080" />
	<path
   class="st0"
   d="M1038.1,22.3c0.1,14-9.8,23.8-23.9,23.9c-13.7,0-23.3-9.1-23.5-22.5c-0.2-13.3,9.5-22.8,23.5-22.9   C1029.1,0.8,1038,8.8,1038.1,22.3z M1029.7,24.9c-0.1-5.3-1.1-10.3-4.3-14.6c-3.8-5.2-9.1-7.3-15.3-6.2c-6.1,1.1-9.2,5.3-10.5,11.2   c-1.1,5-0.8,9.9,0.6,14.8c2.5,8.5,10.2,13.8,18,12.7c6.7-0.9,11-6.9,11.5-16C1029.7,26.2,1029.7,25.5,1029.7,24.9z"
   id="path52"
   style="fill:#800080" />
	<path
   class="st0"
   d="M640.7,1.9c7.1,0,14.2-0.2,21.3,0.1c4.2,0.2,7.7,2.2,9.3,6.5c1.9,5.1,0.4,9.8-3.3,13.2c-3.1,2.9-3,4.7-0.2,7.5   c2.2,2.2,4.1,4.8,6,7.3c3,3.8,6.3,7.2,11.4,8.2c-7.1,1.4-13.5,1.2-18-5.6c-2.1-3.2-4.6-6.1-6.7-9.3c-1.7-2.7-4.3-2.6-6.6-2.2   c-2.1,0.4-1,2.8-1.1,4.3c-0.1,2,0.2,4,0.1,6c-0.2,4,1.1,6.5,5.6,6.7c-5.8,1.4-11.5-0.3-17.4,0.5c4.2-1,4.4-4,4.4-7.1   c0.1-10,0.1-20,0.2-30C645.9,4.5,644.6,2.2,640.7,1.9z M652.9,14.4c0,2,0.2,4,0,5.9c-0.3,3.2,1.3,3.9,4.1,3.9c4.7,0,7.1-2,7.9-7   c0.9-5.7-1.6-10.9-6-12.2c-4.5-1.4-5.9-0.3-5.9,4.4C652.9,11.1,652.9,12.7,652.9,14.4z"
   id="path54"
   style="fill:#800080" />
	<path
   class="st0"
   d="M723.5,13.3c-3.7-7-9.4-10-18.6-9.3c-7,0.5-11.9,4.9-13.4,12c-3.2,14.3,6,26.9,19.6,26.9c4,0,5.9-1.3,5.5-5.6   c-0.2-2.1-0.2-4.3,0-6.5c0.4-3.9-0.7-6.5-5.1-7.1c5.5,0,11,0,18.3,0c-6.6,1.5-5.4,5.5-5.4,9c0,12-0.5,12.6-12.7,13.3   c-4.2,0.2-8.3-0.1-12.4-1.2c-11.4-3.2-17.5-11.9-16.5-23.5c0.9-11,8.7-19,19.9-20.3c6.3-0.7,12.6-0.1,18.9,1   c1.5,0.3,2.5,0.8,2.4,2.5C723.7,7.5,723.6,10.4,723.5,13.3z"
   id="path56"
   style="fill:#800080" />
	<path
   class="st0"
   d="M324.2,24c-3.8,0.9-4,3.8-3.9,6.8c0,2.2-0.3,4.4,0.1,6.5c0.8,5.3-1.6,7.5-6.5,8.2c-6.2,0.9-12.3,1.1-18.3-0.6   C283.8,41.7,278,33.1,279,20.5c0.8-10.1,9-18.2,19.7-19.4c6.3-0.7,12.6-0.1,18.9,1c1.6,0.3,2.4,0.8,2.4,2.5c0,2.9,0,5.9-0.5,9.1   c-3.3-8.6-10.1-9.8-17.7-9.6c-7.4,0.2-12.4,4.5-14.1,11.8c-3.3,14.4,5.6,27,19.2,27.2c4,0.1,6.5-1,5.9-5.7c-0.2-2.1-0.1-4.3,0-6.5   c0.1-3.5-0.3-6.6-5-6.9C313.4,24,318.8,24,324.2,24z"
   id="path58"
   style="fill:#800080" />
	<path
   class="st0"
   d="M56.7,2c5.7,0,11.3,0,17,0c-3.7,0.9-4,3.4-4,6.4c0.1,6.8,0,13.7,0.1,20.5c0,3,0.4,6,1.9,8.7   c2.5,4.3,6.4,5.6,11.1,5c5.1-0.7,8.2-3.8,8.9-8.8c1.2-9.1,0.5-18.3,0.4-27.4c0-3.4-2.9-3.1-6.2-4.4c6.1,0,10.9,0,15.7,0   c-3.9,0.8-3.9,3.7-3.9,6.8c0,7.2,0.1,14.3-0.5,21.5c-0.8,10.5-7.3,16.1-18,15.9c-10.8-0.1-16.7-5.6-17.2-16.5   C61.8,22.9,61.9,16,62,9.2C62.1,5.4,61.7,2.3,56.7,2z"
   id="path60"
   style="fill:#800080" />
	<path
   class="st0"
   d="M332,45.2c3.6-0.9,4-3.6,4.1-6.6c0-10.3-0.1-20.7,0.1-31c0.1-4-2.3-4.7-5.4-5.9c4.9,0,9.7,0,14.6,0   c2.2,0,4.3,0,6.5,0c7.3,0,7.3,0,5.2,7.9c-2-3.4-8.4-5.9-12-4.6c-0.7,0.3-1.3,0.6-1.3,1.3c0,4.2-0.1,8.3,0,12.5   c0,1.3,1.2,1.5,2.2,1.4c3.6-0.2,7.3,0.9,11.2-1.5c-0.2,3.4-0.3,6.3-0.5,9.9c-2.1-1.6-1.8-4.4-4.7-4.8c-7.2-1.1-8.3-0.5-8.3,6.9   c0,1.2-0.1,2.3,0,3.5c0.4,3-1.2,7,3.8,7.9c6,1.1,9-0.2,11.3-5.1c2.2,6.6,0.3,8.9-6.5,8.6c-3.5-0.2-7-0.2-10.5-0.3   C338.5,45.1,335.2,45.2,332,45.2z"
   id="path62"
   style="fill:#800080" />
	<path
   class="st0"
   d="M534.9,44.2c3.5-0.1,4.3-2.1,4.3-5c0-10.3,0.2-20.6,0.2-30.9c0-3.3-0.6-6.2-5.4-5.7c3.7-1.5,7.3-0.8,10.7-1   c3.3-0.1,6.7,0,10,0c7.5,0,7.5,0,5.7,7.9c-2.3-3.7-7.8-6.6-11.5-4.4c-4.3,2.5-1,7.7-1.8,11.7c-0.3,1.5-0.5,3.5,2.2,3.4   c3.6-0.2,7.3,0.7,11.2-1.4c-0.2,3.3-0.4,6.2-0.6,9.6c-2-1.6-1.9-4.3-4.8-4.7c-7.3-1-8.2-0.6-8.2,6.9c0,1-0.1,2,0,3   c0.4,3-1.5,7,3.3,8.2c5.6,1.4,9.3-0.1,11.8-4.9c1.8,6.9,0.3,8.7-6.6,8.5c-6.7-0.2-13.5,0-20.2,0C535.2,45,535,44.6,534.9,44.2z"
   id="path64"
   style="fill:#800080" />
	<path
   class="st0"
   d="M896.7,45.2c-5.8,0-10.4,0-14.9,0c5.2-0.9,6.2-5.3,7.8-9.1c4.3-10.6,8.6-21.3,12.9-31.9c0.5-1.2,0.7-3,2.2-3   c1.6-0.1,1.8,1.8,2.2,2.9c4.4,10.8,8.8,21.6,13.2,32.3c1.6,3.8,3.1,7.7,8.3,8.2c-4.2,1.2-8.4,0.7-12.4,0.6c-1.3,0-1.5-0.6-1.8-2.1   c-0.7-3.5-2.2-6.9-3.4-10.4c-0.5-1.4-1.4-2.2-3-2.1c-1.3,0.1-2.7,0-4,0c-7.1,0-10.4,3.2-11.2,10.4C892.2,44,894.4,43.6,896.7,45.2z    M903.2,13c-1.7,4.3-2.8,7.7-4.3,11c-1.4,3-0.4,3.9,2.6,3.6c1.3-0.1,2.7-0.1,4,0c2.3,0.1,3-0.8,2.1-3   C906.2,21.1,904.9,17.6,903.2,13z"
   id="path66"
   style="fill:#800080" />
	<path
   class="st0"
   d="M922.6,10.3c-0.8-3.3,0.1-5,0.3-6.8c0.2-2.2,1.4-2.4,3.4-2.4c10.1,0.3,20.3,0.8,30.4,0.2   c4.7-0.3,5.1,1.2,4.4,4.8c-0.2,1.1-0.1,2.2-0.2,3.7c-2.9-3.8-9.9-6-13.7-4.8c-1.6,0.5-1.4,1.7-1.4,2.8c0,10.3,0.1,20.6,0.1,31   c0,3.9,2.1,5.3,5.7,5.7c-5.8,1.2-11.5-0.1-17.6,0.4c4-1,4.2-3.9,4.2-6.8c0-9.8,0-19.6,0.1-29.5c0-2.8-1-4-3.8-3.6   C930.4,5.8,925.3,3.9,922.6,10.3z"
   id="path68"
   style="fill:#800080" />
	<path
   class="st0"
   d="M878.6,11.2c-1.4-3.9-3.1-7.3-7.7-7.4c-2.9-0.1-5.4,0.7-6.6,3.4c-1.1,2.5-0.4,5,1.6,6.8   c1.7,1.6,3.5,3.1,5.3,4.5c2.5,2,5,3.9,6.9,6.5c6.3,8.5,1.9,19.1-8.5,20.8c-1.3,0.2-2.7,0.3-4,0.3c-9-0.1-11-3.1-8-12.1   c1.3,0.7,0.9,2,1.2,3.1c1.1,3.6,3.6,5.5,7.3,5.8c3.2,0.3,6.1-0.7,7.5-3.7c1.6-3.4,0.5-6.6-2.1-9.1c-2-2-4.3-3.7-6.5-5.5   c-2.2-1.8-4.2-3.8-5.6-6.3c-4.5-7.9-0.4-16.3,8.6-17.4c1.3-0.2,2.7-0.1,4-0.1C880.4,0.9,881.3,2.3,878.6,11.2z"
   id="path70"
   style="fill:#800080" />
	<path
   class="st0"
   d="M967.4,2c5.3,0,10.7,0,16,0c-3.6,0.7-4.5,3.1-4.5,6.2c0.1,10,0.2,19.9,0.1,29.9c0,4,1.3,6.3,5.7,6.6   c-5.9,1.2-11.6-0.2-17.9,0.3c4.4-0.6,4.5-3.6,4.5-6.6c0-10.1,0-20.3,0-30.4C971.4,5,971.1,2.4,967.4,2z"
   id="path72"
   style="fill:#800080" />
	<path
   class="st0"
   d="M830.6,44.9c3.5-0.5,4-3.2,4.1-5.9c0.1-10.6,0.1-21.3,0.1-31.9c0-3-1.9-4.2-4.4-5.1c5.3,0,10.7,0,16,0   c-3.6,0.9-4.3,3.4-4.3,6.6c0.1,9.6,0.1,19.3,0,28.9c0,4,0.7,7.1,5.7,7.4C842,44.9,836.3,44.9,830.6,44.9z"
   id="path74"
   style="fill:#800080" />
</g>
</svg>
