<?xml version="1.0" encoding="UTF-8" standalone="no"?>
<svg
   version="1.1"
   viewBox="0 0 137.21257 137.2126"
   fill="none"
   stroke="none"
   stroke-linecap="square"
   stroke-miterlimit="10"
   id="svg321"
   sodipodi:docname="logo.svg"
   width="137.21257"
   height="137.2126"
   inkscape:version="1.1.2 (0a00cf5339, 2022-02-04)"
   inkscape:export-filename="/home/reece/projects/biocommons/biocommons.github.io/docs/images/logo.png"
   inkscape:export-xdpi="200.21803"
   inkscape:export-ydpi="200.21803"
   xmlns:inkscape="http://www.inkscape.org/namespaces/inkscape"
   xmlns:sodipodi="http://sodipodi.sourceforge.net/DTD/sodipodi-0.dtd"
   xmlns="http://www.w3.org/2000/svg"
   xmlns:svg="http://www.w3.org/2000/svg">
  <defs
     id="defs325" />
  <sodipodi:namedview
     id="namedview323"
     pagecolor="#ffffff"
     bordercolor="#666666"
     borderopacity="1.0"
     inkscape:pageshadow="2"
     inkscape:pageopacity="0.0"
     inkscape:pagecheckerboard="0"
     showgrid="false"
     fit-margin-top="1"
     fit-margin-left="1"
     fit-margin-right="1"
     fit-margin-bottom="1"
     inkscape:zoom="1.0634302"
     inkscape:cx="-134.94069"
     inkscape:cy="334.29557"
     inkscape:window-width="1473"
     inkscape:window-height="1082"
     inkscape:window-x="26"
     inkscape:window-y="23"
     inkscape:window-maximized="0"
     inkscape:current-layer="svg321"
     lock-margins="true" />
  <clipPath
     id="p.0">
    <path
       d="M 0,0 H 1184.8451 V 655.7848 H 0 Z"
       clip-rule="nonzero"
       id="path2" />
  </clipPath>
  <path
     fill="#a64d79"
     d="M 39.98358,89.229452 9.57418,58.820002 v 0 c -2.7357,-2.73569 -4.27261,-6.44609 -4.27261,-10.31495 0,-3.86887 1.53691,-7.57927 4.27261,-10.31497 l 10.315,-10.31496 c 2e-4,-1.8e-4 5e-4,-1.8e-4 6e-4,0 l 30.4089,30.40945 v 0 c 5.6967,5.69679 5.6967,14.93313 0,20.62992 l -10.3151,10.31496 v 0 c -1e-4,1.9e-4 -5e-4,1.9e-4 -6e-4,0 z"
     fill-rule="evenodd"
     id="path279" />
  <path
     stroke="#ffffff"
     stroke-width="4"
     stroke-linejoin="round"
     stroke-linecap="butt"
     d="M 39.98358,89.229452 9.57418,58.820002 v 0 c -2.7357,-2.73569 -4.27261,-6.44609 -4.27261,-10.31495 0,-3.86887 1.53691,-7.57927 4.27261,-10.31497 l 10.315,-10.31496 c 2e-4,-1.8e-4 5e-4,-1.8e-4 6e-4,0 l 30.4089,30.40945 v 0 c 5.6967,5.69679 5.6967,14.93313 0,20.62992 l -10.3151,10.31496 v 0 c -1e-4,1.9e-4 -5e-4,1.9e-4 -6e-4,0 z"
     fill-rule="evenodd"
     id="path281" />
  <path
     fill="#674ea7"
     d="m 60.60638,105.77167 h -43.0237 v 0 c -3.8675,0 -7.5767,-1.53639 -10.3115,-4.27118 C 4.53644,98.765702 3,95.056542 3,91.188972 v -14.58267 c 0,-2.7e-4 2.4e-4,-4.8e-4 4.9e-4,-4.8e-4 l 43.02309,4.8e-4 v 0 c 8.0539,0 14.5828,6.52889 14.5828,14.58267 v 14.582698 0 c 0,2.6e-4 -2e-4,4.7e-4 -5e-4,4.7e-4 z"
     fill-rule="evenodd"
     id="path283" />
  <path
     stroke="#ffffff"
     stroke-width="4"
     stroke-linejoin="round"
     stroke-linecap="butt"
     d="m 60.60638,105.77167 h -43.0237 v 0 c -3.8675,0 -7.5767,-1.53639 -10.3115,-4.27118 C 4.53644,98.765702 3,95.056542 3,91.188972 v -14.58267 c 0,-2.7e-4 2.4e-4,-4.8e-4 4.9e-4,-4.8e-4 l 43.02309,4.8e-4 v 0 c 8.0539,0 14.5828,6.52889 14.5828,14.58267 v 14.582698 0 c 0,2.6e-4 -2e-4,4.7e-4 -5e-4,4.7e-4 z"
     fill-rule="evenodd"
     id="path285" />
  <path
     fill="#3d85c6"
     d="m 89.22928,97.229452 -30.4094,30.409458 v 0 c -2.7357,2.73571 -6.4462,4.2726 -10.3151,4.2726 -3.8688,0 -7.5792,-1.53689 -10.3149,-4.2726 l -10.315,-10.31495 c -2e-4,-2e-4 -2e-4,-5.1e-4 0,-6.9e-4 l 30.4095,-30.408778 v 0 c 5.6967,-5.69679 14.9331,-5.69679 20.63,0 l 10.3149,10.31496 v 0 c 1e-4,1.9e-4 1e-4,5e-4 0,6.8e-4 z"
     fill-rule="evenodd"
     id="path287" />
  <path
     stroke="#ffffff"
     stroke-width="4"
     stroke-linejoin="round"
     stroke-linecap="butt"
     d="m 89.22928,97.229452 -30.4094,30.409458 v 0 c -2.7357,2.73571 -6.4462,4.2726 -10.3151,4.2726 -3.8688,0 -7.5792,-1.53689 -10.3149,-4.2726 l -10.315,-10.31495 c -2e-4,-2e-4 -2e-4,-5.1e-4 0,-6.9e-4 l 30.4095,-30.408778 v 0 c 5.6967,-5.69679 14.9331,-5.69679 20.63,0 l 10.3149,10.31496 v 0 c 1e-4,1.9e-4 1e-4,5e-4 0,6.8e-4 z"
     fill-rule="evenodd"
     id="path289" />
  <path
     fill="#3c78d8"
     d="m 105.77168,76.606302 v 43.023628 0 c 0,3.86757 -1.5364,7.57672 -4.2711,10.31151 -2.734903,2.73479 -6.444003,4.27116 -10.311503,4.27116 H 76.60638 c -3e-4,0 -5e-4,-2.1e-4 -5e-4,-4.7e-4 l 5e-4,-43.023158 v 0 c 0,-8.05379 6.5288,-14.58267 14.582697,-14.58267 h 14.582603 v 0 c 2e-4,0 5e-4,2.1e-4 5e-4,4.8e-4 z"
     fill-rule="evenodd"
     id="path291" />
  <path
     stroke="#ffffff"
     stroke-width="4"
     stroke-linejoin="round"
     stroke-linecap="butt"
     d="m 105.77168,76.606302 v 43.023628 0 c 0,3.86757 -1.5364,7.57672 -4.2711,10.31151 -2.734903,2.73479 -6.444003,4.27116 -10.311503,4.27116 H 76.60638 c -3e-4,0 -5e-4,-2.1e-4 -5e-4,-4.7e-4 l 5e-4,-43.023158 v 0 c 0,-8.05379 6.5288,-14.58267 14.582697,-14.58267 h 14.582603 v 0 c 2e-4,0 5e-4,2.1e-4 5e-4,4.8e-4 z"
     fill-rule="evenodd"
     id="path293" />
  <path
     fill="#6aa84f"
     d="M 117.33988,109.34006 86.93048,78.930602 v 0 c -2.7357,-2.7357 -4.2727,-6.4461 -4.2727,-10.31496 0,-3.86886 1.537,-7.57926 4.2727,-10.31496 l 10.314897,-10.31496 c 10e-5,-1.8e-4 5e-4,-1.8e-4 6e-4,0 l 30.408803,30.40945 v 0 c 5.6968,5.6968 5.6968,14.93312 0,20.62992 l -10.3149,10.314968 v 0 c -2e-4,1.8e-4 -5e-4,1.8e-4 -7e-4,0 z"
     fill-rule="evenodd"
     id="path295" />
  <path
     stroke="#ffffff"
     stroke-width="4"
     stroke-linejoin="round"
     stroke-linecap="butt"
     d="M 117.33988,109.34006 86.93048,78.930602 v 0 c -2.7357,-2.7357 -4.2727,-6.4461 -4.2727,-10.31496 0,-3.86886 1.537,-7.57926 4.2727,-10.31496 l 10.314897,-10.31496 c 10e-5,-1.8e-4 5e-4,-1.8e-4 6e-4,0 l 30.408803,30.40945 v 0 c 5.6968,5.6968 5.6968,14.93312 0,20.62992 l -10.3149,10.314968 v 0 c -2e-4,1.8e-4 -5e-4,1.8e-4 -7e-4,0 z"
     fill-rule="evenodd"
     id="path297" />
  <path
     fill="#f1c232"
     d="M 134.21258,60.606302 H 91.188977 v 0 c -3.867497,0 -7.576697,-1.53638 -10.311497,-4.27117 -2.7347,-2.73478 -4.2711,-6.44394 -4.2711,-10.31151 v -14.58268 c 0,-2.6e-4 1e-4,-4.7e-4 4e-4,-4.7e-4 l 43.0232,4.7e-4 v 0 c 8.0538,0 14.5826,6.52889 14.5826,14.58268 v 14.58268 0 c 0,2.7e-4 -1e-4,4.8e-4 -5e-4,4.8e-4 z"
     fill-rule="evenodd"
     id="path299" />
  <path
     stroke="#ffffff"
     stroke-width="4"
     stroke-linejoin="round"
     stroke-linecap="butt"
     d="M 134.21258,60.606302 H 91.188977 v 0 c -3.867497,0 -7.576697,-1.53638 -10.311497,-4.27117 -2.7347,-2.73478 -4.2711,-6.44394 -4.2711,-10.31151 v -14.58268 c 0,-2.6e-4 1e-4,-4.7e-4 4e-4,-4.7e-4 l 43.0232,4.7e-4 v 0 c 8.0538,0 14.5826,6.52889 14.5826,14.58268 v 14.58268 0 c 0,2.7e-4 -1e-4,4.8e-4 -5e-4,4.8e-4 z"
     fill-rule="evenodd"
     id="path301" />
  <path
     fill="#e69138"
     d="m 109.33988,19.873222 -30.4094,30.40945 v 0 c -2.7357,2.73569 -6.4462,4.2726 -10.3151,4.2726 -3.8688,0 -7.5792,-1.53691 -10.3149,-4.2726 l -10.315,-10.31496 c -2e-4,-1.9e-4 -2e-4,-4.9e-4 0,-6.8e-4 l 30.4095,-30.40877 v 0 c 5.6967,-5.696796 14.933097,-5.696796 20.629997,0 l 10.314903,10.31496 v 0 c 1e-4,1.9e-4 1e-4,4.9e-4 0,6.8e-4 z"
     fill-rule="evenodd"
     id="path303" />
  <path
     stroke="#ffffff"
     stroke-width="4"
     stroke-linejoin="round"
     stroke-linecap="butt"
     d="m 109.33988,19.873222 -30.4094,30.40945 v 0 c -2.7357,2.73569 -6.4462,4.2726 -10.3151,4.2726 -3.8688,0 -7.5792,-1.53691 -10.3149,-4.2726 l -10.315,-10.31496 c -2e-4,-1.9e-4 -2e-4,-4.9e-4 0,-6.8e-4 l 30.4095,-30.40877 v 0 c 5.6967,-5.696796 14.933097,-5.696796 20.629997,0 l 10.314903,10.31496 v 0 c 1e-4,1.9e-4 1e-4,4.9e-4 0,6.8e-4 z"
     fill-rule="evenodd"
     id="path305" />
  <path
     fill="#cc0000"
     d="m 60.60638,3.000001 v 43.023621 0 c 0,3.86757 -1.5365,7.57673 -4.2712,10.31151 -2.7348,2.73478 -6.444,4.27117 -10.3116,4.27117 h -14.5826 c -2e-4,0 -5e-4,-2.2e-4 -5e-4,-4.8e-4 l 5e-4,-43.02315 v 0 C 31.44098,9.528885 37.96988,3 46.02358,3 h 14.5828 v 0 c 2e-4,0 4e-4,2.14e-4 4e-4,4.79e-4 z"
     fill-rule="evenodd"
     id="path307" />
  <path
     stroke="#ffffff"
     stroke-width="4"
     stroke-linejoin="round"
     stroke-linecap="butt"
     d="m 60.60638,3.000001 v 43.023621 0 c 0,3.86757 -1.5365,7.57673 -4.2712,10.31151 -2.7348,2.73478 -6.444,4.27117 -10.3116,4.27117 h -14.5826 c -2e-4,0 -5e-4,-2.2e-4 -5e-4,-4.8e-4 l 5e-4,-43.02315 v 0 C 31.44098,9.528885 37.96988,3 46.02358,3 h 14.5828 v 0 c 2e-4,0 4e-4,2.14e-4 4e-4,4.79e-4 z"
     fill-rule="evenodd"
     id="path309" />
  <path
     fill="#a64d79"
     d="m 22.23468,40.495332 v 0 c 1.8643,-1.86442 4.8872,-1.86442 6.7516,0 l 20.209,20.20894 c 0.8953,0.89532 1.3983,2.10966 1.3983,3.37585 0,1.26619 -0.503,2.48051 -1.3983,3.37584 l -3.8941,3.89398 v 0 c -1.8643,1.86442 -4.8872,1.86442 -6.7517,0 l -20.2088,-20.20893 v 0 c -1.8645,-1.86444 -1.8645,-4.88727 0,-6.7517 z"
     fill-rule="evenodd"
     id="path311" />
  <path
     stroke="#a64d79"
     stroke-width="1"
     stroke-linejoin="round"
     stroke-linecap="butt"
     d="m 22.23468,40.495332 v 0 c 1.8643,-1.86442 4.8872,-1.86442 6.7516,0 l 20.209,20.20894 c 0.8953,0.89532 1.3983,2.10966 1.3983,3.37585 0,1.26619 -0.503,2.48051 -1.3983,3.37584 l -3.8941,3.89398 v 0 c -1.8643,1.86442 -4.8872,1.86442 -6.7517,0 l -20.2088,-20.20893 v 0 c -1.8645,-1.86444 -1.8645,-4.88727 0,-6.7517 z"
     fill-rule="evenodd"
     id="path313" />
  <path
     fill="#000000"
     fill-opacity="0"
     d="m 18.84778,27.070862 35.685,35.68504"
     fill-rule="evenodd"
     id="path315" />
  <path
     stroke="#ffffff"
     stroke-width="4"
     stroke-linejoin="round"
     stroke-linecap="butt"
     d="m 18.84778,27.070862 35.685,35.68504"
     fill-rule="evenodd"
     id="path317" />
</svg>
